<?xml version="1.0" encoding="UTF-8"?>
<svg width="92px" height="84px" viewBox="0 0 92 84" version="1.1" xmlns="http://www.w3.org/2000/svg" xmlns:xlink="http://www.w3.org/1999/xlink">
    <!-- Generator: Sketch 41.2 (35397) - http://www.bohemiancoding.com/sketch -->
    <title>ShakeIcon</title>
    <desc>Created with Sketch.</desc>
    <defs></defs>
    <g id="Page-1" stroke="none" stroke-width="1" fill="none" fill-rule="evenodd">
        <g id="ShakeIcon" fill="#D92750">
            <g id="or-shake" transform="translate(3.000000, 0.000000)">
                <g id="noun_652834_cc" transform="translate(42.007072, 42.175096) rotate(17.000000) translate(-42.007072, -42.175096) translate(8.507072, 8.675096)">
                    <g id="Group" transform="translate(-0.000000, 0.000000)">
                        <g transform="translate(0.000000, -0.000000)" id="Shape">
                            <path d="M47.156431,1.10134124e-13 L19.2688739,1.10134124e-13 C16.5808632,1.10134124e-13 14.3921494,2.1887138 14.3921494,4.87672447 L14.3921494,61.5474733 C14.3921494,64.2365911 16.5808632,66.4253049 19.2688739,66.4253049 L47.1553239,66.4253049 C49.8444417,66.4253049 52.0331555,64.2365911 52.0331555,61.5485804 L52.0331555,4.87672447 C52.0331555,2.1887138 49.8444417,1.10134124e-13 47.156431,1.10134124e-13 Z M16.6063262,8.85670732 L49.8189787,8.85670732 L49.8189787,50.9260671 L16.6063262,50.9260671 L16.6063262,8.85670732 Z M19.2688739,2.21417683 L47.1553239,2.21417683 C48.6244303,2.21417683 49.8189787,3.40872523 49.8189787,4.87672447 L49.8189787,6.64253049 L16.6063262,6.64253049 L16.6063262,4.87672447 C16.6063262,3.40872523 17.8008746,2.21417683 19.2688739,2.21417683 Z M47.156431,64.211128 L19.2688739,64.211128 C17.8008746,64.211128 16.6063262,63.0165796 16.6063262,61.5485804 L16.6063262,53.1402439 L49.8189787,53.1402439 L49.8189787,61.5485804 C49.8189787,63.0165796 48.6244303,64.211128 47.156431,64.211128 Z"></path>
                            <path d="M33.2126524,54.2473323 C30.7704154,54.2473323 28.7842988,56.2334489 28.7842988,58.675686 C28.7842988,61.117923 30.7704154,63.1040396 33.2126524,63.1040396 C35.6548895,63.1040396 37.6410061,61.117923 37.6410061,58.675686 C37.6410061,56.2334489 35.6548895,54.2473323 33.2126524,54.2473323 Z M33.2126524,60.8898628 C31.9915339,60.8898628 30.9984756,59.8968045 30.9984756,58.675686 C30.9984756,57.4545675 31.9915339,56.4615091 33.2126524,56.4615091 C34.433771,56.4615091 35.4268293,57.4545675 35.4268293,58.675686 C35.4268293,59.8968045 34.433771,60.8898628 33.2126524,60.8898628 Z"></path>
                            <path d="M62.6744893,5.05828697 C62.2416178,4.6254154 61.5419379,4.6254154 61.1090663,5.05828697 C60.6761947,5.49115854 60.6761947,6.19083841 61.1090663,6.62370998 C65.2451486,10.7597923 65.2451486,17.4897828 61.1090663,21.6269722 C60.6761947,22.0598438 60.6761947,22.7595236 61.1090663,23.1923952 C61.3249486,23.4082774 61.6083632,23.5167721 61.8917778,23.5167721 C62.1751925,23.5167721 62.4586071,23.4082774 62.6744893,23.1923952 C67.6741006,18.193891 67.6741006,10.0578982 62.6744893,5.05828697 Z"></path>
                            <path d="M58.01254,7.5780202 C57.5796684,7.14514863 56.8799886,7.14514863 56.447117,7.5780202 C56.0142454,8.01089177 56.0142454,8.71057165 56.447117,9.14344322 C57.8165854,10.5129116 58.5705126,12.3373933 58.5705126,14.2792264 C58.5705126,16.2210595 57.8165854,18.0444341 56.447117,19.4139024 C56.0142454,19.846774 56.0142454,20.5464539 56.447117,20.9793255 C56.6629992,21.1952077 56.9464139,21.3037024 57.2298285,21.3037024 C57.5132431,21.3037024 57.7966578,21.1952077 58.01254,20.9793255 C59.8004878,19.1924848 60.7846894,16.8122447 60.7846894,14.2792264 C60.7846894,11.7462081 59.8015949,9.3648609 58.01254,7.5780202 Z"></path>
                            <path d="M5.31623857,6.62370998 C5.74911014,6.19083841 5.74911014,5.49115854 5.31623857,5.05828697 C4.883367,4.6254154 4.18368712,4.6254154 3.75081555,5.05828697 C-1.24879573,10.0578982 -1.24879573,18.1927839 3.75081555,23.1923952 C3.96669779,23.4082774 4.25011242,23.5167721 4.53352706,23.5167721 C4.81694169,23.5167721 5.10035633,23.4082774 5.31623857,23.1923952 C5.74911014,22.7595236 5.74911014,22.0598437 5.31623857,21.6269722 C1.17904916,17.4908899 1.17904916,10.7608994 5.31623857,6.62370998 Z"></path>
                            <path d="M9.97818788,7.2724638 C9.54531631,6.83959223 8.84563643,6.83959223 8.41276486,7.2724638 C6.62481707,9.0593045 5.64061547,11.4395446 5.64061547,13.9725629 C5.64061547,16.5055812 6.62481707,18.8858213 8.41276486,20.6737691 C8.6286471,20.8896513 8.91206174,20.998146 9.19547637,20.998146 C9.47889101,20.998146 9.76230564,20.8896513 9.97818788,20.6737691 C10.4110595,20.2408975 10.4110595,19.5412176 9.97818788,19.108346 C8.60871951,17.7388777 7.8547923,15.914396 7.8547923,13.9725629 C7.8547923,12.0307298 8.60761242,10.2073552 9.97818788,8.83788681 C10.4099524,8.40612233 10.4099524,7.70533537 9.97818788,7.2724638 Z"></path>
                        </g>
                    </g>
                </g>
            </g>
        </g>
    </g>
</svg>